# xmcd CD database file
#
# Track frame offsets:
#	150
#	16113
#	27364
#	40893
#	55862
#	73589
#	94178
#	106247
#	123059
#	138292
#	154147
#	170377
#	183793
#	205238
#	224538
#
# Disc length: 3198 seconds
#
# Revision: 0
# Processed by: cddbd v1.5.2PL0 Copyright (c) Steve Scherf et al.
# Submitted via: CDex 1.51
#
DISCID=c50c7c0f
DTITLE=Lee Brice - Lee Brice
DYEAR=2017
DGENRE=Country
TTITLE0=Lee Brice - What Keeps You Up At Night
TTITLE1=Lee Brice - Little Things
TTITLE2=Lee Brice - American Nights
TTITLE3=Lee Brice - Boy
TTITLE4=Lee Brice - They Won't Forget About Us
TTITLE5=Lee Brice and Warren Haynes - I Don't Smoke
TTITLE6=Lee Brice - You Can't Help Who You Love
TTITLE7=Lee Brice - Rumor
TTITLE8=Lee Brice - The Locals
TTITLE9=Lee Brice - Songs In The Kitchen
TTITLE10=Lee Brice, Edwin McCain and Warren Haynes - Story To Tell (Little Bird)
TTITLE11=Lee Brice - Have A Good Day
TTITLE12=Lee Brice - Eyes Closed
TTITLE13=Lee Brice - Dixie Highway
TTITLE14=Lee Brice - The Best Part Of Me
EXTD=YEAR: 2017
EXTT0=
EXTT1=
EXTT2=
EXTT3=
EXTT4=
EXTT5=
EXTT6=
EXTT7=
EXTT8=
EXTT9=
EXTT10=
EXTT11=
EXTT12=
EXTT13=
EXTT14=
PLAYORDER=
